<?xml version="1.0" encoding="utf-8"?>
<!-- Generator: Adobe Illustrator 19.0.1, SVG Export Plug-In . SVG Version: 6.00 Build 0)  -->
<svg version="1.1" id="Layer_1" xmlns="http://www.w3.org/2000/svg" xmlns:xlink="http://www.w3.org/1999/xlink" x="0px" y="0px"
	 viewBox="0 0 500 500" enable-background="new 0 0 500 500" xml:space="preserve">
<g>
	<path fill="#0063A5" d="M399.4,215.7c0,8.1,34.2,9.2,34.7,21c0.5,10.5-33.5,14-35.3,27.1c-1.9,14,25.6,20,25.4,34.8
		c-0.1,7.7-21.9,6.4-29.1,16c-7.1,9.6,39.9,28.9,38.9,35.3c-2.3,15.2-46.8-3.9-52.6,4c-8.1,11.2,34.7,41.9,23,50.4
		c-22.5,16.4-63.3-30.4-70.9-30.1c-12.5,0.6,0.6,41-11.8,44.9c-24.8,8-29.5-26.5-40.3-28.6c-34.8-6.7-36.6,49.9-49.8,46.3
		c-13.2-3.6-11.5-61.7-23.3-67.4c-8.8-4.3-23.3,48.8-35.9,39.4c-11.3-8.4-8.9-42.1-17.3-46.2c-22.8-11-43.4,35.9-58.9,16.1
		c-12.2-15.7,26.6-55.6,20.7-75.1c-4.5-14.9-41.6-16.1-50.8-27.2c-11.2-13.5,24.1-16.8,33.2-26.7c10.7-11.6-44.5-51.3-25.9-55.8
		c76.8-18.5,21.5-72.1,41.5-82.8c10.6-5.6,25.1,27.2,39.4,36.8c16.6,11.2,24-43.1,38.9-43.1c12.3,0,21,19.5,34,21.5
		c10.1,1.6,12.9-52.9,28.2-49c24,6.1,5.7,44.3,20.2,58.4c7.1,6.9,36.3-31.7,46-30.3c18.4,2.6,19.3,49.6,23.2,53
		c21.3,18.8,62.3-32.7,71.6-5.2C422,169.6,399.4,197.5,399.4,215.7z"/>
	<g>
		<path fill="#FFFFFF" d="M161.5,183.4c-6.7,0-12,2.2-15.9,6.7c-3.9,4.5-5.8,10.6-5.8,18.4c0,8,1.9,14.2,5.6,18.5
			c3.7,4.4,9.1,6.5,16,6.5c4.3,0,9.1-0.8,14.6-2.3v6.2c-4.2,1.6-9.5,2.4-15.7,2.4c-9,0-15.9-2.7-20.8-8.2
			c-4.9-5.5-7.3-13.2-7.3-23.3c0-6.3,1.2-11.8,3.5-16.5c2.4-4.7,5.8-8.4,10.2-10.9c4.4-2.6,9.7-3.8,15.7-3.8c6.4,0,12,1.2,16.8,3.5
			l-3,6.1C170.8,184.5,166.1,183.4,161.5,183.4z"/>
		<path fill="#FFFFFF" d="M210.5,239l-1.4-6.5h-0.3c-2.3,2.9-4.6,4.8-6.8,5.8c-2.3,1-5.1,1.5-8.5,1.5c-4.5,0-8.1-1.2-10.7-3.5
			c-2.6-2.3-3.9-5.7-3.9-10c0-9.2,7.4-14.1,22.2-14.5l7.8-0.3v-2.8c0-3.6-0.8-6.2-2.3-8c-1.5-1.7-4-2.6-7.4-2.6
			c-3.8,0-8.1,1.2-13,3.5l-2.1-5.3c2.3-1.2,4.7-2.2,7.4-2.9c2.7-0.7,5.4-1,8.1-1c5.5,0,9.5,1.2,12.1,3.6c2.6,2.4,3.9,6.3,3.9,11.7
			V239H210.5z M194.8,234.1c4.3,0,7.7-1.2,10.2-3.6c2.5-2.4,3.7-5.7,3.7-9.9v-4.1l-6.9,0.3c-5.5,0.2-9.5,1.1-11.9,2.6
			c-2.4,1.5-3.7,3.9-3.7,7.1c0,2.5,0.8,4.4,2.3,5.7C190,233.5,192.1,234.1,194.8,234.1z"/>
		<path fill="#FFFFFF" d="M230.9,239h-6.9v-65h6.9V239z"/>
		<path fill="#FFFFFF" d="M258.9,239.9c-6.8,0-12.1-2.1-16-6.2c-3.9-4.1-5.9-9.8-5.9-17.2c0-7.4,1.8-13.2,5.5-17.6
			c3.6-4.3,8.5-6.5,14.6-6.5c5.7,0,10.3,1.9,13.6,5.7c3.3,3.8,5,8.8,5,14.9v4.4h-31.6c0.1,5.4,1.5,9.5,4.1,12.2
			c2.6,2.8,6.2,4.2,10.9,4.2c4.9,0,9.8-1,14.6-3.1v6.2c-2.5,1.1-4.8,1.8-7,2.3C264.6,239.6,262,239.9,258.9,239.9z M257,198.2
			c-3.7,0-6.6,1.2-8.8,3.6c-2.2,2.4-3.5,5.7-3.9,9.9h23.9c0-4.4-1-7.7-2.9-10C263.4,199.4,260.7,198.2,257,198.2z"/>
		<path fill="#FFFFFF" d="M302.9,192.5c6,0,10.7,2.1,14,6.2c3.3,4.1,5,9.9,5,17.4s-1.7,13.4-5,17.5c-3.4,4.2-8,6.2-14,6.2
			c-3,0-5.7-0.6-8.2-1.7c-2.5-1.1-4.5-2.8-6.2-5.1H288l-1.5,5.9h-5v-65h6.9v15.8c0,3.5-0.1,6.7-0.3,9.5h0.3
			C291.8,194.8,296.6,192.5,302.9,192.5z M301.9,198.3c-4.7,0-8.1,1.4-10.2,4.1c-2.1,2.7-3.1,7.3-3.1,13.7s1.1,11,3.2,13.8
			c2.1,2.8,5.6,4.2,10.3,4.2c4.3,0,7.4-1.6,9.5-4.7c2.1-3.1,3.1-7.6,3.1-13.4c0-6-1-10.4-3.1-13.3
			C309.5,199.8,306.3,198.3,301.9,198.3z"/>
		<path fill="#FFFFFF" d="M333.6,177.9l0.6,0.9c-0.7,2.8-1.8,6-3.1,9.7c-1.4,3.7-2.8,7.1-4.3,10.3h-5.1c1.9-7.9,3.4-14.9,4.3-20.9
			H333.6z"/>
		<path fill="#FFFFFF" d="M366.1,226.5c0,4.3-1.6,7.5-4.8,9.9c-3.2,2.3-7.6,3.5-13.4,3.5c-6.1,0-10.8-1-14.2-2.9v-6.4
			c2.2,1.1,4.6,2,7.1,2.6c2.5,0.6,5,1,7.3,1c3.6,0,6.4-0.6,8.4-1.7c1.9-1.2,2.9-2.9,2.9-5.3c0-1.8-0.8-3.3-2.3-4.6
			c-1.5-1.3-4.6-2.8-9-4.5c-4.3-1.6-7.3-3-9.1-4.2c-1.8-1.2-3.1-2.5-4-4c-0.9-1.5-1.3-3.3-1.3-5.4c0-3.7,1.5-6.7,4.6-8.8
			c3-2.2,7.2-3.2,12.5-3.2c4.9,0,9.8,1,14.5,3l-2.5,5.6c-4.6-1.9-8.8-2.8-12.5-2.8c-3.3,0-5.8,0.5-7.4,1.5c-1.7,1-2.5,2.5-2.5,4.3
			c0,1.2,0.3,2.3,0.9,3.1c0.6,0.9,1.6,1.7,3,2.5c1.4,0.8,4.1,1.9,8,3.4c5.4,2,9.1,4,11,6C365.2,221,366.1,223.5,366.1,226.5z"/>
	</g>
	<g>
		<g>
			<path fill="#FFFFFF" d="M136.9,336.7v-9.2h4.7v-35.6h-4.7v-9.2h29.5l8.1,8.5v16.9l-8.1,8.5h-14.8v10.8h5.4v9.2H136.9z
				 M162.1,306.9l2.8-2.8V295l-2.7-2.8h-10.5v14.7H162.1z"/>
			<path fill="#E56167" d="M165.6,284.5l7,7.4v15.4l-7,7.4h-15.9v14.7h5.4v5.4h-16.2v-5.4h4.7v-39.5h-4.7v-5.4H165.6 M149.7,308.9
				h13.2l3.9-3.9v-10.7l-3.8-3.9h-13.3V308.9 M167.3,280.6h-1.7h-26.8H135v3.9v5.4v3.9h3.9h0.8v31.7h-0.8H135v3.9v5.4v3.9h3.9H155
				h3.9v-3.9v-5.4v-3.9H155h-1.5v-6.9h12h1.7l1.2-1.2l7-7.4l1.1-1.1v-1.5v-15.4v-1.5l-1.1-1.1l-7-7.4L167.3,280.6L167.3,280.6z
				 M153.6,294.2h7.8l1.6,1.6v7.5l-1.6,1.6h-7.7V294.2L153.6,294.2z"/>
		</g>
		<g>
			<polygon fill="#FFFFFF" points="186.3,336.7 186.3,327.4 191.6,327.4 191.6,291.8 186.3,291.8 186.3,282.6 207,282.6 207,291.8 
				201.7,291.8 201.7,327.4 207,327.4 207,336.7 			"/>
			<path fill="#EE7F22" d="M205.1,284.5v5.4h-5.4v39.5h5.4v5.4h-16.9v-5.4h5.4v-39.5h-5.4v-5.4H205.1 M209,280.6h-3.9h-16.9h-3.9
				v3.9v5.4v3.9h3.9h1.5v31.7h-1.5h-3.9v3.9v5.4v3.9h3.9h16.9h3.9v-3.9v-5.4v-3.9h-3.9h-1.5v-31.7h1.5h3.9v-3.9v-5.4V280.6
				L209,280.6z"/>
		</g>
		<g>
			<polygon fill="#FFFFFF" points="225.8,336.7 225.8,327.4 232.4,327.4 232.4,291.8 226.4,291.8 226.4,299.6 217.5,299.6 
				217.5,282.6 257.5,282.6 257.5,299.6 248.5,299.6 248.5,291.8 242.5,291.8 242.5,327.4 249.2,327.4 249.2,336.7 			"/>
			<path fill="#38B44A" d="M255.5,284.5v13.1h-5.1v-7.8h-9.9v39.5h6.7v5.4h-19.5v-5.4h6.7v-39.5h-9.9v7.8h-5.1v-13.1H255.5
				 M259.4,280.6h-3.9h-36.1h-3.9v3.9v13.1v3.9h3.9h5.1h3.9v-3.9v-3.9h2.1v31.7h-2.8h-3.9v3.9v5.4v3.9h3.9h19.5h3.9v-3.9v-5.4v-3.9
				h-3.9h-2.8v-31.7h2.1v3.9v3.9h3.9h5.1h3.9v-3.9v-13.1V280.6L259.4,280.6z"/>
		</g>
		<g>
			<polygon fill="#FFFFFF" points="276.6,336.7 268.6,328.1 268.6,291.1 276.6,282.6 295.2,282.6 303.2,291.1 303.2,302.3 
				294,302.3 294,295.4 290.9,292.2 281,292.2 278.6,294.6 278.6,324.6 280.9,327 290.9,327 294,323.8 294,317 303.2,317 
				303.2,328.1 295.2,336.7 			"/>
			<path fill="#58BFC4" d="M294.3,284.5l7,7.4v8.4h-5.4v-5.7l-4.2-4.3h-11.6l-3.5,3.5v31.6l3.4,3.5h11.6l4.3-4.3v-5.7h5.4v8.4
				l-7,7.4h-16.9l-7-7.4v-35.5l7-7.4H294.3 M296,280.6h-1.7h-16.9h-1.7l-1.2,1.2l-7,7.4l-1.1,1.1v1.5v35.5v1.5l1.1,1.1l7,7.4
				l1.2,1.2h1.7h16.9h1.7l1.2-1.2l7-7.4l1.1-1.1v-1.5v-8.4V315h-3.9h-5.4h-3.9v3.9v4.1l-2,2.1h-8.3l-1.2-1.2v-28.4l1.2-1.2h8.3l2,2
				v4.1v3.9h3.9h5.4h3.9v-3.9v-8.4v-1.5l-1.1-1.1l-7-7.4L296,280.6L296,280.6z"/>
		</g>
		<g>
			<polygon fill="#FFFFFF" points="343.8,336.7 343.8,327.4 348.5,327.4 348.5,314.2 331.8,314.2 331.8,327.4 336.4,327.4 
				336.4,336.7 317,336.7 317,327.4 321.7,327.4 321.7,291.8 317,291.8 317,282.6 336.4,282.6 336.4,291.8 331.8,291.8 331.8,305 
				348.5,305 348.5,291.8 343.8,291.8 343.8,282.6 363.2,282.6 363.2,291.8 358.5,291.8 358.5,327.4 363.2,327.4 363.2,336.7 			"/>
			<path fill="#825EA3" d="M361.3,284.5v5.4h-4.7v39.5h4.7v5.4h-15.5v-5.4h4.7v-17.1h-20.6v17.1h4.7v5.4H319v-5.4h4.7v-39.5H319
				v-5.4h15.5v5.4h-4.7V307h20.6v-17.1h-4.7v-5.4H361.3 M365.1,280.6h-3.9h-15.5h-3.9v3.9v5.4v3.9h3.9h0.8v9.3h-12.8v-9.3h0.8h3.9
				v-3.9v-5.4v-3.9h-3.9H319h-3.9v3.9v5.4v3.9h3.9h0.8v31.7H319h-3.9v3.9v5.4v3.9h3.9h15.5h3.9v-3.9v-5.4v-3.9h-3.9h-0.8v-9.3h12.8
				v9.3h-0.8h-3.9v3.9v5.4v3.9h3.9h15.5h3.9v-3.9v-5.4v-3.9h-3.9h-0.8v-31.7h0.8h3.9v-3.9v-5.4V280.6L365.1,280.6z"/>
		</g>
	</g>
	<polygon fill="#FFFFFF" points="363.8,256.4 261.9,256.4 237.2,256.4 134.1,256.4 134.1,263.1 237.7,263.1 261.4,263.1 
		363.8,263.1 	"/>
	<path fill="#0063A5" d="M114.2,86.5c2.3,4.4,1.4,9.4-2.1,11.2s-8-0.4-10.3-4.8c-2.3-4.4-4.7-13.9-1.3-15.7
		C104,75.5,112,82.1,114.2,86.5z"/>
	<path fill="#0063A5" d="M338,440c1.1,4.8-2.9,19.8-6.6,20.6s-15.3-9.8-16.3-14.6c-1.1-4.8,6-7.9,9.7-8.8S336.9,435.2,338,440z"/>
	<path fill="#0063A5" d="M430.2,417c2.8,4.1,4.1,17.2,1,19.4c-3.2,2.2-13.1-6.7-16-10.8c-2.8-4.1-2.6-9.1,0.6-11.3
		C419,412.1,427.4,413,430.2,417z"/>
	<path fill="#0063A5" d="M447.3,359.5c-4.6-1.9-6.9-3.4-5.4-7c1.5-3.5,6.4-4.9,11-2.9s11.1,7.5,9.6,11.1
		C461,364.2,451.9,361.4,447.3,359.5z"/>
	<path fill="#0063A5" d="M444.4,304.6c-4.9,0.4-11.5-2-11.7-5.1c-0.2-3.1,5.3-8.5,10.3-8.9c4.9-0.4,13.2,5.1,13.4,8.2
		C456.7,301.9,449.4,304.2,444.4,304.6z"/>
	<path fill="#0063A5" d="M454,243.4c-4.9,0.3-9.1-2.6-9.4-6.4c-0.2-3.8-0.5-10.2,4.5-10.5s16.7,3.9,16.9,7.8
		C466.2,238,458.9,243.1,454,243.4z"/>
	<path fill="#0063A5" d="M439.5,127.5c-3.2,3.8-8.1,4.9-11.1,2.5c-3-2.5-2.9-11.3,0.3-15.1c3.2-3.8,10.3-4.4,13.3-1.9
		C444.9,115.4,442.6,123.7,439.5,127.5z"/>
	<path fill="#0063A5" d="M344.4,81c-2.9,4-7.8,5.4-10.9,3.2c-3.1-2.3-3.3-7.3-0.4-11.3c2.9-4,9.1-13.6,12.2-11.3
		C348.5,63.7,347.4,76.9,344.4,81z"/>
	<path fill="#0063A5" d="M272.3,44c0,5-4.9,3.5-8.7,3.5s-7-4-7-9s3.1-9,7-9S272.3,39,272.3,44z"/>
	<path fill="#0063A5" d="M196.3,64c1.9,4.6,0.7,9.5-2.9,11c-3.5,1.5-14.3,1.7-16.3-2.8c-1.9-4.6,0.5-24.3,4.1-25.8
		C184.8,44.9,194.4,59.5,196.3,64z"/>
	<path fill="#0063A5" d="M42.8,178.6c4.6,1.7,9.7,10.9,8.4,14.5s-6.2,5.1-10.8,3.4s-7.3-6-6-9.6C35.7,183.2,38.1,176.9,42.8,178.6z"
		/>
	<path fill="#0063A5" d="M47.8,282.7c-4.9,0.7-13.2,0.3-13.8-3.5s7-9.6,11.9-10.3c4.9-0.7,9.3,1.9,9.8,5.7
		C56.3,278.4,52.7,282,47.8,282.7z"/>
	<path fill="#0063A5" d="M83.2,414.3c-3.3,3.7-14.7,4-17.5,1.4c-2.8-2.6,3.9-12.2,7.2-15.8s8.3-4.6,11.2-2
		C86.9,400.5,86.5,410.7,83.2,414.3z"/>
	<path fill="#0063A5" d="M172.6,434.2c-1.7,4.7-9.9,13.1-13.5,11.8c-3.6-1.3-4.6-9.3-2.9-13.9c1.7-4.7,6-7.4,9.6-6.1
		C169.3,427.3,174.3,429.5,172.6,434.2z"/>
	<path fill="#0063A5" d="M231,459.8c-1.2,4.8-7.9,11.4-11.6,10.5s-5-10.7-3.8-15.5c1.2-4.8,6.7-4.5,10.5-3.5S232.2,455,231,459.8z"
		/>
</g>
</svg>
